<?xml version="1.0" encoding="UTF-8" standalone="no"?><svg xmlns="http://www.w3.org/2000/svg" xmlns:xlink="http://www.w3.org/1999/xlink" contentStyleType="text/css" height="1214px" preserveAspectRatio="none" style="width:1393px;height:1214px;background:#FFFFFF;" version="1.1" viewBox="0 0 1393 1214" width="1393px" zoomAndPan="magnify"><defs/><g><rect fill="none" height="27.6094" id="_title" style="stroke:none;stroke-width:1.0;" width="231" x="574" y="5"/><text fill="#000000" font-family="sans-serif" font-size="14" font-weight="bold" lengthAdjust="spacing" textLength="221" x="579" y="24.5332">Example Multi-Layered Network</text><!--MD5=[abfe5332687cc7c45cbffb716cccbe7b]
cluster topLevelNetwork--><g id="cluster_topLevelNetwork"><rect fill="none" height="1163" rx="2.5" ry="2.5" style="stroke:#181818;stroke-width:1.0;" width="1380" x="7" y="45.6094"/><text fill="#000000" font-family="sans-serif" font-size="14" font-weight="bold" lengthAdjust="spacing" textLength="131" x="631.5" y="62.1426">Top Level Network</text></g><!--MD5=[ed06cf43afc93311aeeab2733376f4d3]
cluster lowerNetworkB--><g id="cluster_lowerNetworkB"><rect fill="none" height="458" rx="2.5" ry="2.5" style="stroke:#181818;stroke-width:1.0;" width="513" x="850" y="338.6094"/><text fill="#000000" font-family="sans-serif" font-size="14" font-weight="bold" lengthAdjust="spacing" textLength="119" x="1047" y="355.1426">Lower Network B</text></g><!--MD5=[1b933b28d1b2160f7eb717a2a5a2c3cb]
cluster community3--><g id="cluster_community3"><path d="M876.5,382.6094 L959.5,382.6094 A3.75,3.75 0 0 1 962,385.1094 L969,406.2188 L1336.5,406.2188 A2.5,2.5 0 0 1 1339,408.7188 L1339,770.1094 A2.5,2.5 0 0 1 1336.5,772.6094 L876.5,772.6094 A2.5,2.5 0 0 1 874,770.1094 L874,385.1094 A2.5,2.5 0 0 1 876.5,382.6094 " fill="none" style="stroke:#000000;stroke-width:1.5;"/><line style="stroke:#000000;stroke-width:1.5;" x1="874" x2="969" y1="406.2188" y2="406.2188"/><text fill="#000000" font-family="sans-serif" font-size="14" font-weight="bold" lengthAdjust="spacing" textLength="82" x="878" y="399.1426">HCID = 1.2.8</text></g><!--MD5=[3df86ba83ef998e9bdbf1a2c9782e00c]
cluster ig3--><g id="cluster_ig3"><polygon fill="none" points="906,629.6094,916,619.6094,1147,619.6094,1147,730.6094,1137,740.6094,906,740.6094,906,629.6094" style="stroke:#181818;stroke-width:1.0;"/><line style="stroke:#181818;stroke-width:1.0;" x1="1137" x2="1147" y1="629.6094" y2="619.6094"/><line style="stroke:#181818;stroke-width:1.0;" x1="906" x2="1137" y1="629.6094" y2="629.6094"/><line style="stroke:#181818;stroke-width:1.0;" x1="1137" x2="1137" y1="629.6094" y2="740.6094"/><text fill="#000000" font-family="sans-serif" font-size="14" font-weight="bold" lengthAdjust="spacing" textLength="124" x="960.5" y="647.1426">Initiating Gateway</text></g><!--MD5=[cebf6e3a718923f49bd7b43b1045489e]
cluster rg3--><g id="cluster_rg3"><polygon fill="none" points="906,444.6094,916,434.6094,1307,434.6094,1307,545.6094,1297,555.6094,906,555.6094,906,444.6094" style="stroke:#181818;stroke-width:1.0;"/><line style="stroke:#181818;stroke-width:1.0;" x1="1297" x2="1307" y1="444.6094" y2="434.6094"/><line style="stroke:#181818;stroke-width:1.0;" x1="906" x2="1297" y1="444.6094" y2="444.6094"/><line style="stroke:#181818;stroke-width:1.0;" x1="1297" x2="1297" y1="444.6094" y2="555.6094"/><text fill="#000000" font-family="sans-serif" font-size="14" font-weight="bold" lengthAdjust="spacing" textLength="148" x="1028.5" y="462.1426">Responding Gateway</text></g><!--MD5=[65de703ca6d8d18ebd8c9ccfc92de030]
cluster lowerNetworkA--><g id="cluster_lowerNetworkA"><rect fill="none" height="1095" rx="2.5" ry="2.5" style="stroke:#181818;stroke-width:1.0;" width="795" x="31" y="89.6094"/><text fill="#000000" font-family="sans-serif" font-size="14" font-weight="bold" lengthAdjust="spacing" textLength="118" x="369.5" y="106.1426">Lower Network A</text></g><!--MD5=[3374516a72c097bcd09576d5579dbb11]
cluster community1--><g id="cluster_community1"><path d="M198.5,820.6094 L281.5,820.6094 A3.75,3.75 0 0 1 284,823.1094 L291,844.2188 L799.5,844.2188 A2.5,2.5 0 0 1 802,846.7188 L802,1158.1094 A2.5,2.5 0 0 1 799.5,1160.6094 L198.5,1160.6094 A2.5,2.5 0 0 1 196,1158.1094 L196,823.1094 A2.5,2.5 0 0 1 198.5,820.6094 " fill="none" style="stroke:#000000;stroke-width:1.5;"/><line style="stroke:#000000;stroke-width:1.5;" x1="196" x2="291" y1="844.2188" y2="844.2188"/><text fill="#000000" font-family="sans-serif" font-size="14" font-weight="bold" lengthAdjust="spacing" textLength="82" x="200" y="837.1426">HCID = 1.2.6</text></g><!--MD5=[aefa22f2580c899d3919a95411593e44]
cluster community2--><g id="cluster_community2"><path d="M57.5,133.6094 L140.5,133.6094 A3.75,3.75 0 0 1 143,136.1094 L150,157.2188 L517.5,157.2188 A2.5,2.5 0 0 1 520,159.7188 L520,585.1094 A2.5,2.5 0 0 1 517.5,587.6094 L57.5,587.6094 A2.5,2.5 0 0 1 55,585.1094 L55,136.1094 A2.5,2.5 0 0 1 57.5,133.6094 " fill="none" style="stroke:#000000;stroke-width:1.5;"/><line style="stroke:#000000;stroke-width:1.5;" x1="55" x2="150" y1="157.2188" y2="157.2188"/><text fill="#000000" font-family="sans-serif" font-size="14" font-weight="bold" lengthAdjust="spacing" textLength="82" x="59" y="150.1426">HCID = 1.2.7</text></g><!--MD5=[c14fb31497ba547578935f7478d2d9d3]
cluster ig2--><g id="cluster_ig2"><polygon fill="none" points="247,195.6094,257,185.6094,488,185.6094,488,296.6094,478,306.6094,247,306.6094,247,195.6094" style="stroke:#181818;stroke-width:1.0;"/><line style="stroke:#181818;stroke-width:1.0;" x1="478" x2="488" y1="195.6094" y2="185.6094"/><line style="stroke:#181818;stroke-width:1.0;" x1="247" x2="478" y1="195.6094" y2="195.6094"/><line style="stroke:#181818;stroke-width:1.0;" x1="478" x2="478" y1="195.6094" y2="306.6094"/><text fill="#000000" font-family="sans-serif" font-size="14" font-weight="bold" lengthAdjust="spacing" textLength="124" x="301.5" y="213.1426">Initiating Gateway</text></g><!--MD5=[d3192afefbf2f3d4a53c19ca90e78e12]
cluster rg2--><g id="cluster_rg2"><polygon fill="none" points="87,444.6094,97,434.6094,488,434.6094,488,545.6094,478,555.6094,87,555.6094,87,444.6094" style="stroke:#181818;stroke-width:1.0;"/><line style="stroke:#181818;stroke-width:1.0;" x1="478" x2="488" y1="444.6094" y2="434.6094"/><line style="stroke:#181818;stroke-width:1.0;" x1="87" x2="478" y1="444.6094" y2="444.6094"/><line style="stroke:#181818;stroke-width:1.0;" x1="478" x2="478" y1="444.6094" y2="555.6094"/><text fill="#000000" font-family="sans-serif" font-size="14" font-weight="bold" lengthAdjust="spacing" textLength="148" x="209.5" y="462.1426">Responding Gateway</text></g><!--MD5=[c20003a0b2c93bd86a1303f4c0bf26b7]
entity exConsumer1--><g id="elem_exConsumer1"><rect fill="#F1F1F1" height="47.6094" rx="2.5" ry="2.5" style="stroke:#181818;stroke-width:0.5;" width="173" x="949.5" y="668.6094"/><rect fill="#F1F1F1" height="10" style="stroke:#181818;stroke-width:0.5;" width="15" x="1102.5" y="673.6094"/><rect fill="#F1F1F1" height="2" style="stroke:#181818;stroke-width:0.5;" width="4" x="1100.5" y="675.6094"/><rect fill="#F1F1F1" height="2" style="stroke:#181818;stroke-width:0.5;" width="4" x="1100.5" y="679.6094"/><text fill="#000000" font-family="sans-serif" font-size="14" lengthAdjust="spacing" textLength="133" x="964.5" y="703.1426">Document Consumer</text></g><!--MD5=[80a0e4f2af05aa1c42e02f2cb1783f07]
entity exSource1--><g id="elem_exSource1"><rect fill="#F1F1F1" height="47.6094" rx="2.5" ry="2.5" style="stroke:#181818;stroke-width:0.5;" width="119" x="1163.5" y="483.6094"/><rect fill="#F1F1F1" height="10" style="stroke:#181818;stroke-width:0.5;" width="15" x="1262.5" y="488.6094"/><rect fill="#F1F1F1" height="2" style="stroke:#181818;stroke-width:0.5;" width="4" x="1260.5" y="490.6094"/><rect fill="#F1F1F1" height="2" style="stroke:#181818;stroke-width:0.5;" width="4" x="1260.5" y="494.6094"/><text fill="#000000" font-family="sans-serif" font-size="14" lengthAdjust="spacing" textLength="79" x="1178.5" y="518.1426">Data Source</text></g><!--MD5=[f859f056cb957c6f1268052a149576d7]
entity exGen1--><g id="elem_exGen1"><rect fill="#F1F1F1" height="47.6094" rx="2.5" ry="2.5" style="stroke:#181818;stroke-width:0.5;" width="179" x="949.5" y="483.6094"/><rect fill="#F1F1F1" height="10" style="stroke:#181818;stroke-width:0.5;" width="15" x="1108.5" y="488.6094"/><rect fill="#F1F1F1" height="2" style="stroke:#181818;stroke-width:0.5;" width="4" x="1106.5" y="490.6094"/><rect fill="#F1F1F1" height="2" style="stroke:#181818;stroke-width:0.5;" width="4" x="1106.5" y="494.6094"/><text fill="#000000" font-family="sans-serif" font-size="14" lengthAdjust="spacing" textLength="139" x="964.5" y="518.1426">Document Generation</text></g><!--MD5=[753272eb6deee320953e42b9491051bb]
entity nig--><g id="elem_nig"><polygon fill="#F1F1F1" points="578.5,493.6094,588.5,483.6094,729.5,483.6094,729.5,521.2188,719.5,531.2188,578.5,531.2188,578.5,493.6094" style="stroke:#181818;stroke-width:0.5;"/><line style="stroke:#181818;stroke-width:0.5;" x1="719.5" x2="729.5" y1="493.6094" y2="483.6094"/><line style="stroke:#181818;stroke-width:0.5;" x1="578.5" x2="719.5" y1="493.6094" y2="493.6094"/><line style="stroke:#181818;stroke-width:0.5;" x1="719.5" x2="719.5" y1="493.6094" y2="531.2188"/><text fill="#000000" font-family="sans-serif" font-size="14" lengthAdjust="spacing" textLength="111" x="593.5" y="518.1426">Initiating Gateway</text></g><!--MD5=[4becced70c1ecf70a17925b6837e17c6]
entity nrg--><g id="elem_nrg"><polygon fill="#F1F1F1" points="560.5,678.6094,570.5,668.6094,735.5,668.6094,735.5,706.2188,725.5,716.2188,560.5,716.2188,560.5,678.6094" style="stroke:#181818;stroke-width:0.5;"/><line style="stroke:#181818;stroke-width:0.5;" x1="725.5" x2="735.5" y1="678.6094" y2="668.6094"/><line style="stroke:#181818;stroke-width:0.5;" x1="560.5" x2="725.5" y1="678.6094" y2="678.6094"/><line style="stroke:#181818;stroke-width:0.5;" x1="725.5" x2="725.5" y1="678.6094" y2="716.2188"/><text fill="#000000" font-family="sans-serif" font-size="14" lengthAdjust="spacing" textLength="135" x="575.5" y="703.1426">Responding Gateway</text></g><!--MD5=[aff0e67a1692f4b0d96c087fa0872bfd]
entity registry--><g id="elem_registry"><polygon fill="#F1F1F1" points="405,998.6094,415,988.6094,565,988.6094,565,1026.2188,555,1036.2188,405,1036.2188,405,998.6094" style="stroke:#181818;stroke-width:0.5;"/><line style="stroke:#181818;stroke-width:0.5;" x1="555" x2="565" y1="998.6094" y2="988.6094"/><line style="stroke:#181818;stroke-width:0.5;" x1="405" x2="555" y1="998.6094" y2="998.6094"/><line style="stroke:#181818;stroke-width:0.5;" x1="555" x2="555" y1="998.6094" y2="1036.2188"/><text fill="#000000" font-family="sans-serif" font-size="14" lengthAdjust="spacing" textLength="120" x="420" y="1023.1426">Document Registry</text></g><!--MD5=[ae38f3df50bbf8acf027574e6a8bac37]
entity repo--><g id="elem_repo"><polygon fill="#F1F1F1" points="421,1106.6094,431,1096.6094,597,1096.6094,597,1134.2188,587,1144.2188,421,1144.2188,421,1106.6094" style="stroke:#181818;stroke-width:0.5;"/><line style="stroke:#181818;stroke-width:0.5;" x1="587" x2="597" y1="1106.6094" y2="1096.6094"/><line style="stroke:#181818;stroke-width:0.5;" x1="421" x2="587" y1="1106.6094" y2="1106.6094"/><line style="stroke:#181818;stroke-width:0.5;" x1="587" x2="587" y1="1106.6094" y2="1144.2188"/><text fill="#000000" font-family="sans-serif" font-size="14" lengthAdjust="spacing" textLength="136" x="436" y="1131.1426">Document Repository</text></g><!--MD5=[226fc8af728df80cb2ddb40b34b22fc1]
entity dc--><g id="elem_dc"><polygon fill="#F1F1F1" points="212.5,1106.6094,222.5,1096.6094,385.5,1096.6094,385.5,1134.2188,375.5,1144.2188,212.5,1144.2188,212.5,1106.6094" style="stroke:#181818;stroke-width:0.5;"/><line style="stroke:#181818;stroke-width:0.5;" x1="375.5" x2="385.5" y1="1106.6094" y2="1096.6094"/><line style="stroke:#181818;stroke-width:0.5;" x1="212.5" x2="375.5" y1="1106.6094" y2="1106.6094"/><line style="stroke:#181818;stroke-width:0.5;" x1="375.5" x2="375.5" y1="1106.6094" y2="1144.2188"/><text fill="#000000" font-family="sans-serif" font-size="14" lengthAdjust="spacing" textLength="133" x="227.5" y="1131.1426">Document Consumer</text></g><!--MD5=[727c1040af9be188ab17d19c49f9ac10]
entity ds--><g id="elem_ds"><polygon fill="#F1F1F1" points="632.5,1106.6094,642.5,1096.6094,785.5,1096.6094,785.5,1134.2188,775.5,1144.2188,632.5,1144.2188,632.5,1106.6094" style="stroke:#181818;stroke-width:0.5;"/><line style="stroke:#181818;stroke-width:0.5;" x1="775.5" x2="785.5" y1="1106.6094" y2="1096.6094"/><line style="stroke:#181818;stroke-width:0.5;" x1="632.5" x2="775.5" y1="1106.6094" y2="1106.6094"/><line style="stroke:#181818;stroke-width:0.5;" x1="775.5" x2="775.5" y1="1106.6094" y2="1144.2188"/><text fill="#000000" font-family="sans-serif" font-size="14" lengthAdjust="spacing" textLength="113" x="647.5" y="1131.1426">Document Source</text></g><!--MD5=[106817543ff2524e0c0b504dfe500eda]
entity ig1--><g id="elem_ig1"><polygon fill="#F1F1F1" points="327.5,890.6094,337.5,880.6094,478.5,880.6094,478.5,918.2188,468.5,928.2188,327.5,928.2188,327.5,890.6094" style="stroke:#181818;stroke-width:0.5;"/><line style="stroke:#181818;stroke-width:0.5;" x1="468.5" x2="478.5" y1="890.6094" y2="880.6094"/><line style="stroke:#181818;stroke-width:0.5;" x1="327.5" x2="468.5" y1="890.6094" y2="890.6094"/><line style="stroke:#181818;stroke-width:0.5;" x1="468.5" x2="468.5" y1="890.6094" y2="928.2188"/><text fill="#000000" font-family="sans-serif" font-size="14" lengthAdjust="spacing" textLength="111" x="342.5" y="915.1426">Initiating Gateway</text></g><!--MD5=[dc8c67f594f12ac0f48b0b1eaae9147c]
entity rg1--><g id="elem_rg1"><polygon fill="#F1F1F1" points="513.5,890.6094,523.5,880.6094,688.5,880.6094,688.5,918.2188,678.5,928.2188,513.5,928.2188,513.5,890.6094" style="stroke:#181818;stroke-width:0.5;"/><line style="stroke:#181818;stroke-width:0.5;" x1="678.5" x2="688.5" y1="890.6094" y2="880.6094"/><line style="stroke:#181818;stroke-width:0.5;" x1="513.5" x2="678.5" y1="890.6094" y2="890.6094"/><line style="stroke:#181818;stroke-width:0.5;" x1="678.5" x2="678.5" y1="890.6094" y2="928.2188"/><text fill="#000000" font-family="sans-serif" font-size="14" lengthAdjust="spacing" textLength="135" x="528.5" y="915.1426">Responding Gateway</text></g><!--MD5=[d8076c7d491b12779b933a82cbb297cb]
entity exConsumer2--><g id="elem_exConsumer2"><rect fill="#F1F1F1" height="47.6094" rx="2.5" ry="2.5" style="stroke:#181818;stroke-width:0.5;" width="173" x="290.5" y="234.6094"/><rect fill="#F1F1F1" height="10" style="stroke:#181818;stroke-width:0.5;" width="15" x="443.5" y="239.6094"/><rect fill="#F1F1F1" height="2" style="stroke:#181818;stroke-width:0.5;" width="4" x="441.5" y="241.6094"/><rect fill="#F1F1F1" height="2" style="stroke:#181818;stroke-width:0.5;" width="4" x="441.5" y="245.6094"/><text fill="#000000" font-family="sans-serif" font-size="14" lengthAdjust="spacing" textLength="133" x="305.5" y="269.1426">Document Consumer</text></g><!--MD5=[d229e3815ec3e7f32b0a0488a136af94]
entity exSource2--><g id="elem_exSource2"><rect fill="#F1F1F1" height="47.6094" rx="2.5" ry="2.5" style="stroke:#181818;stroke-width:0.5;" width="119" x="344.5" y="483.6094"/><rect fill="#F1F1F1" height="10" style="stroke:#181818;stroke-width:0.5;" width="15" x="443.5" y="488.6094"/><rect fill="#F1F1F1" height="2" style="stroke:#181818;stroke-width:0.5;" width="4" x="441.5" y="490.6094"/><rect fill="#F1F1F1" height="2" style="stroke:#181818;stroke-width:0.5;" width="4" x="441.5" y="494.6094"/><text fill="#000000" font-family="sans-serif" font-size="14" lengthAdjust="spacing" textLength="79" x="359.5" y="518.1426">Data Source</text></g><!--MD5=[b6e3c64561d916b8e205b3feaef2ce5d]
entity exGen2--><g id="elem_exGen2"><rect fill="#F1F1F1" height="47.6094" rx="2.5" ry="2.5" style="stroke:#181818;stroke-width:0.5;" width="179" x="130.5" y="483.6094"/><rect fill="#F1F1F1" height="10" style="stroke:#181818;stroke-width:0.5;" width="15" x="289.5" y="488.6094"/><rect fill="#F1F1F1" height="2" style="stroke:#181818;stroke-width:0.5;" width="4" x="287.5" y="490.6094"/><rect fill="#F1F1F1" height="2" style="stroke:#181818;stroke-width:0.5;" width="4" x="287.5" y="494.6094"/><text fill="#000000" font-family="sans-serif" font-size="14" lengthAdjust="spacing" textLength="139" x="145.5" y="518.1426">Document Generation</text></g><!--MD5=[3e0856ccdbfb58e7f6166614ce3e2081]
reverse link nrg to ig3--><g id="link_nrg_ig3"><path d="M740.84,692.6094 C740.84,692.6094 783.9675,692.6094 827.095,692.6094 C848.6588,692.6094 870.2225,692.6094 886.3953,692.6094 C894.4817,692.6094 901.2204,692.6094 905.9375,692.6094 " fill="none" id="nrg-backto-ig3" style="stroke:#181818;stroke-width:1.0;"/><polygon fill="#181818" points="735.84,692.6094,744.84,696.6094,740.84,692.6094,744.84,688.6094,735.84,692.6094" style="stroke:#181818;stroke-width:1.0;"/></g><!--MD5=[3b89dd526819cfd97acf9d1862e1f528]
link nig to rg3--><g id="link_nig_rg3"><path d="M729.55,507.6094 C766.135,507.6094 809.74,507.6094 845.365,507.6094 C863.1775,507.6094 878.995,507.6094 890.9425,507.6094 C896.9163,507.6094 901.9225,507.6094 905.7269,507.6094 " fill="none" id="nig-to-rg3" style="stroke:#181818;stroke-width:1.0;"/><polygon fill="#181818" points="905.7269,507.6094,896.7269,503.6094,900.7269,507.6094,896.7269,511.6094,905.7269,507.6094" style="stroke:#181818;stroke-width:1.0;"/></g><!--MD5=[0357db3067284365bffe48ef12da1522]
link ig1 to nig--><g id="link_ig1_nig"><path d="M471,880.3694 C471,794.1794 471,507.6094 471,507.6094 C471,507.6094 573.25,507.6094 573.25,507.6094 " fill="none" id="ig1-to-nig" style="stroke:#181818;stroke-width:1.0;"/><polygon fill="#181818" points="578.25,507.6094,569.25,503.6094,573.25,507.6094,569.25,511.6094,578.25,507.6094" style="stroke:#181818;stroke-width:1.0;"/></g><!--MD5=[8704c6437918d84b2e0b9d9cab5ce62c]
link ig2 to nig--><g id="link_ig2_nig"><path d="M255,306.7686 C255,306.9958 255,307.2232 255,307.4509 C255,307.9063 255,308.3627 255,308.82 C255,310.6492 255,312.493 255,314.3449 C255,318.0486 255,321.7844 255,325.4994 C255,355.2194 255,383.6094 255,383.6094 C255,383.6094 654,383.6094 654,383.6094 C654,383.6094 654,478.4094 654,478.4094 " fill="none" id="ig2-to-nig" style="stroke:#181818;stroke-width:1.0;"/><polygon fill="#181818" points="654,483.4094,658,474.4094,654,478.4094,650,474.4094,654,483.4094" style="stroke:#181818;stroke-width:1.0;"/></g><!--MD5=[c55efd29d7943bf7d08c90d79eba7386]
link nrg to rg1--><g id="link_nrg_rg1"><path d="M624.5,716.9294 C624.5,716.9294 624.5,875.5694 624.5,875.5694 " fill="none" id="nrg-to-rg1" style="stroke:#181818;stroke-width:1.0;"/><polygon fill="#181818" points="624.5,880.5694,628.5,871.5694,624.5,875.5694,620.5,871.5694,624.5,880.5694" style="stroke:#181818;stroke-width:1.0;"/></g><!--MD5=[aff7496a22ac2f35395d8cdfb06e6cfe]
reverse link rg2 to nrg--><g id="link_rg2_nrg"><path d="M113.25,556.2159 C113.25,556.8608 113.25,557.5094 113.25,558.1614 C113.25,560.7698 113.25,563.4346 113.25,566.1445 C113.25,576.9844 113.25,588.5469 113.25,600.1094 C113.25,646.3594 113.25,692.6094 113.25,692.6094 C113.25,692.6094 408.59,692.6094 560.3,692.6094 " fill="none" id="rg2-backto-nrg" style="stroke:#181818;stroke-width:1.0;"/><polygon fill="#181818" points="113.25,556.2159,109.25,565.2159,113.25,561.2159,117.25,565.2159,113.25,556.2159" style="stroke:#181818;stroke-width:1.0;"/></g><!--MD5=[57e1bb3fb8d6cad09c0c4f7885b9ff78]
reverse link rg2 to ig1--><g id="link_rg2_ig1"><path d="M95,555.9766 C95,556.493 95,557.0126 95,557.5354 C95,559.6266 95,561.7693 95,563.9605 C95,568.3431 95,572.9201 95,577.6689 C95,615.6597 95,664.65 95,713.0856 C95,809.9569 95,904.6094 95,904.6094 C95,904.6094 236.06,904.6094 327.26,904.6094 " fill="none" id="rg2-backto-ig1" style="stroke:#181818;stroke-width:1.0;"/><polygon fill="#181818" points="95,555.9766,91,564.9766,95,560.9766,99,564.9766,95,555.9766" style="stroke:#181818;stroke-width:1.0;"/></g><!--MD5=[9341e9bdc4f09f948bea800b73f52243]
link ig2 to rg1--><g id="link_ig2_rg1"><path d="M489.1625,216.6094 C489.5882,216.6094 490.0119,216.6094 490.4334,216.6094 C491.2766,216.6094 492.1113,216.6094 492.9375,216.6094 C519.375,216.6094 537,216.6094 537,216.6094 C537,216.6094 537,875.5294 537,875.5294 " fill="none" id="ig2-to-rg1" style="stroke:#181818;stroke-width:1.0;"/><polygon fill="#181818" points="537,880.5294,541,871.5294,537,875.5294,533,871.5294,537,880.5294" style="stroke:#181818;stroke-width:1.0;"/></g><!--MD5=[b4f583095ee81b2b1a79b8e86f58051b]
reverse link ig1 to dc--><g id="link_ig1_dc"><path d="M356.5,933.9694 C356.5,933.9694 356.5,1096.3394 356.5,1096.3394 " fill="none" id="ig1-backto-dc" style="stroke:#181818;stroke-width:1.0;"/><polygon fill="#181818" points="356.5,928.9694,352.5,937.9694,356.5,933.9694,360.5,937.9694,356.5,928.9694" style="stroke:#181818;stroke-width:1.0;"/></g><!--MD5=[f8132cb944edb5f2408492ca07acd05f]
link rg1 to registry--><g id="link_rg1_registry"><path d="M539.25,928.8494 C539.25,928.8494 539.25,983.4494 539.25,983.4494 " fill="none" id="rg1-to-registry" style="stroke:#181818;stroke-width:1.0;"/><polygon fill="#181818" points="539.25,988.4494,543.25,979.4494,539.25,983.4494,535.25,979.4494,539.25,988.4494" style="stroke:#181818;stroke-width:1.0;"/></g><!--MD5=[2f13b346efbe7903966df5d99e7c7476]
link rg1 to repo--><g id="link_rg1_repo"><path d="M581,928.9694 C581,928.9694 581,1091.3394 581,1091.3394 " fill="none" id="rg1-to-repo" style="stroke:#181818;stroke-width:1.0;"/><polygon fill="#181818" points="581,1096.3394,585,1087.3394,581,1091.3394,577,1087.3394,581,1096.3394" style="stroke:#181818;stroke-width:1.0;"/></g><!--MD5=[a5b84f42525b763b09caf64441594300]
reverse link registry to dc--><g id="link_registry_dc"><path d="M413,1041.8194 C413,1041.8194 413,1112.6094 413,1112.6094 C413,1112.6094 401.45,1112.6094 385.69,1112.6094 " fill="none" id="registry-backto-dc" style="stroke:#181818;stroke-width:1.0;"/><polygon fill="#181818" points="413,1036.8194,409,1045.8194,413,1041.8194,417,1045.8194,413,1036.8194" style="stroke:#181818;stroke-width:1.0;"/></g><!--MD5=[115c94ba92d5698c63be31e48e9db014]
link dc to repo--><g id="link_dc_repo"><path d="M385.63,1128.6094 C385.63,1128.6094 415.88,1128.6094 415.88,1128.6094 " fill="none" id="dc-to-repo" style="stroke:#181818;stroke-width:1.0;"/><polygon fill="#181818" points="420.88,1128.6094,411.88,1124.6094,415.88,1128.6094,411.88,1132.6094,420.88,1128.6094" style="stroke:#181818;stroke-width:1.0;"/></g><!--MD5=[757a6fcf51064d516c3af9d9538f9f74]
reverse link repo to ds--><g id="link_repo_ds"><path d="M602.01,1120.6094 C602.01,1120.6094 632.24,1120.6094 632.24,1120.6094 " fill="none" id="repo-backto-ds" style="stroke:#181818;stroke-width:1.0;"/><polygon fill="#181818" points="597.01,1120.6094,606.01,1124.6094,602.01,1120.6094,606.01,1116.6094,597.01,1120.6094" style="stroke:#181818;stroke-width:1.0;"/></g><!--MD5=[1b74898a7fb51bdb180ab5344c29dece]
reverse link registry to repo--><g id="link_registry_repo"><path d="M493,1041.8494 C493,1041.8494 493,1096.4494 493,1096.4494 " fill="none" id="registry-backto-repo" style="stroke:#181818;stroke-width:1.0;"/><polygon fill="#181818" points="493,1036.8494,489,1045.8494,493,1041.8494,497,1045.8494,493,1036.8494" style="stroke:#181818;stroke-width:1.0;"/></g><!--MD5=[eb1ea8f3678c3455468a236215e27e95]
link nig to nrg--><!--MD5=[95bb16a79ed55a40f2036a4ce85ebabe]
link rg3 to ig3--><!--MD5=[954c7572824cb9a590ad3c86ef5af8c4]
link ig2 to rg2--><!--MD5=[c8b09e0d81d087c75c9905ebc7c241d4]
@startuml multi_layered_network
title "Example Multi-Layered Network"
skinparam linetype ortho
rectangle topLevelNetwork as "Top Level Network" {
    rectangle lowerNetworkB as "Lower Network B" {
        package community3 as "HCID = 1.2.8" {
            node ig3 as "Initiating Gateway" {
                component "Document Consumer" as exConsumer1
            }
            node rg3 as "Responding Gateway" {
                component "Data Source" as exSource1
                component "Document Generation" as exGen1
            }
        }
    }
    rectangle lowerNetworkA as "Lower Network A" {
        together {
            node nig as "Initiating Gateway"
            node nrg as "Responding Gateway"
        }
        package community1 as "HCID = 1.2.6" {
            together {
                node ig1 as "Initiating Gateway"
                node rg1 as "Responding Gateway"
            }
        node registry as "Document Registry"
        node repo as "Document Repository"
        node dc as "Document Consumer"
        node ds as "Document Source"
        } 
        package community2 as "HCID = 1.2.7" {
            node ig2 as "Initiating Gateway" {
                component "Document Consumer" as exConsumer2
            }
            node rg2 as "Responding Gateway" {
                component "Data Source" as exSource2
                component "Document Generation" as exGen2
            }
        }
    }
}
ig3 -l-> nrg
nig -r-> rg3
ig1 - -> nig
ig2 -r-> nig
nrg -d-> rg1
nrg -l-> rg2
ig1 -u-> rg2
ig2 - - - -> rg1
dc -u-> ig1
rg1 -d-> registry
rg1 -d-> repo
dc -u-> registry
dc -r-> repo
ds -l-> repo
repo -u-> registry
nig - -[hidden]> nrg
rg3 - -[hidden]> ig3
ig2 - -[hidden]> rg2
@enduml

PlantUML version 1.2022.7(Mon Aug 22 12:01:30 CDT 2022)
(GPL source distribution)
Java Runtime: OpenJDK Runtime Environment
JVM: OpenJDK 64-Bit Server VM
Default Encoding: Cp1252
Language: en
Country: US
--></g></svg>